<?xml version="1.0" encoding="UTF-8"?><svg id="Layer_2" xmlns="http://www.w3.org/2000/svg" viewBox="0 0 800 580"><defs><style>.cls-1{fill-rule:evenodd;}.cls-1,.cls-2{fill:#306998;}.cls-3{fill:#ffd43b;}</style></defs><g id="Layer_1-2"><path class="cls-2" d="m730.8,58c6.2,0,11.2,5,11.2,11.2v441.6c0,6.2-5,11.2-11.2,11.2H69.2c-6.2,0-11.2-5-11.2-11.2V69.2c0-6.2,5-11.2,11.2-11.2h661.6m0-58H69.2C31,0,0,31,0,69.2v441.6c0,38.2,31,69.2,69.2,69.2h661.6c38.2,0,69.2-31,69.2-69.2V69.2c0-38.2-31-69.2-69.2-69.2h0Z"/><path class="cls-3" d="m162.2,412.1l21,21c8.9,8.9,23.2,8.9,32.1,0l127.2-127.2c8.9-8.9,8.9-23.2,0-32.1l-127.2-127.1c-8.9-8.9-23.2-8.9-32.1,0l-21,21c-8.9,8.9-8.9,23.2,0,32.1l74.1,74.1c8.9,8.9,8.9,23.2,0,32.1l-74.1,74.1c-8.8,8.8-8.8,23.2,0,32Z"/><path class="cls-3" d="m604.9,405.8h-163c-11.6,0-21,8.4-21,18.7v10.2c0,10.4,9.4,18.7,21,18.7h163.1c11.6,0,21-8.4,21-18.7v-10.2c-.1-10.3-9.5-18.7-21.1-18.7Z"/><path class="cls-1" d="m581.8,158.9v53.3c0,32.3-32.7,31.7-32.7,31.7h-58.1c-34.9,0-33.8,34.5-33.8,34.5v28.9h-20.5s-34.3,2.2-34.3-60.1,39.3-57.8,39.3-57.8h81.9v-8.3h-58.6l-.1-27.7s-3.8-26.8,57.6-26.8c64.2,0,59.3,32.3,59.3,32.3Zm-99.1-10.5c-4.1,4.1-4.1,10.9,0,15,2,2,4.7,3.1,7.5,3.1s5.5-1.1,7.5-3.1c4.1-4.1,4.1-10.9,0-15-2-2-4.7-3.1-7.5-3.1s-5.5,1.1-7.5,3.1Z"/><path class="cls-3" d="m465,336.3v-53.3c0-32.3,32.7-31.7,32.7-31.7h58.1c34.9,0,33.8-34.5,33.8-34.5v-28.9h20.5s34.3-2.2,34.3,60.1-39.3,57.8-39.3,57.8h-81.9v8.3h58.6l.1,27.7s3.8,26.8-57.6,26.8c-64.2,0-59.3-32.3-59.3-32.3Zm99,10.5c4.1-4.1,4.1-10.9,0-15-2-2-4.7-3.1-7.5-3.1s-5.5,1.1-7.5,3.1c-4.1,4.1-4.1,10.9,0,15,2,2,4.7,3.1,7.5,3.1,2.9.1,5.6-1.1,7.5-3.1Z"/></g></svg>